<svg version="1.1" id="Layer_1" xmlns="http://www.w3.org/2000/svg" xmlns:xlink="http://www.w3.org/1999/xlink" x="0px" y="0px"
	 width="100%" viewBox="0 0 2162 727" enable-background="new 0 0 2162 727" xml:space="preserve">
<path fill="#FDFDFD" opacity="1.000000" stroke="none" 
	d="
M1515.000000,728.000000 
	C1010.000000,728.000000 505.500000,728.000000 1.000000,728.000000 
	C1.000000,485.666656 1.000000,243.333328 1.000000,1.000000 
	C721.666687,1.000000 1442.333374,1.000000 2163.000000,1.000000 
	C2163.000000,243.333328 2163.000000,485.666656 2163.000000,728.000000 
	C1947.166626,728.000000 1731.333374,728.000000 1515.000000,728.000000 
M769.226013,562.997437 
	C766.100586,562.687500 762.975220,562.377563 759.159668,561.667419 
	C758.803467,558.587463 758.447205,555.507507 758.636658,553.176086 
	C759.706055,552.379578 760.775513,551.583069 761.844910,550.786560 
	C760.580383,549.856506 759.315857,548.926453 757.875305,547.075073 
	C757.875305,541.476440 757.875305,535.877747 757.875305,530.510376 
	C754.990173,530.510376 752.709473,530.510376 750.776367,530.510376 
	C750.776367,541.028076 749.925171,551.350708 751.045227,561.454834 
	C751.943848,569.561707 759.132629,573.308289 768.906921,572.917542 
	C777.218628,572.585205 783.962646,568.107788 784.488831,560.938599 
	C785.224670,550.913269 784.674500,540.793518 784.674500,530.661438 
	C782.033264,530.661438 779.653687,530.661438 776.719421,530.661438 
	C776.719421,539.800354 776.719421,548.594116 775.937805,556.870361 
	C775.623047,555.134155 775.071777,553.402649 775.036804,551.660828 
	C774.920532,545.868652 775.097534,540.068970 774.891418,534.281799 
	C774.852905,533.200806 773.563110,532.164368 772.850830,531.107300 
	C771.938538,531.890808 770.291016,532.624146 770.233643,533.466064 
	C769.867432,538.833984 769.774902,544.225342 769.743835,549.609863 
	C769.718018,554.081543 769.900208,558.554504 769.226013,562.997437 
M153.646072,364.500397 
	C153.646072,292.715607 153.646072,220.930832 153.646072,148.968140 
	C128.162094,148.968140 103.111885,148.968140 77.683266,148.968140 
	C77.683266,150.993469 77.682564,152.625793 77.683372,154.258133 
	C77.723999,236.587128 77.685432,318.916260 77.839249,401.245056 
	C77.915138,441.864899 90.910164,478.236908 116.532768,509.543823 
	C170.985687,576.076965 274.155975,603.975159 359.012451,540.970215 
	C405.112762,506.741241 429.386414,460.079315 430.209869,402.190979 
	C430.681549,369.032776 430.296692,335.862366 430.293976,302.697449 
	C430.293640,298.364624 430.358002,294.028564 430.194824,289.701447 
	C430.158203,288.729828 429.485779,287.540497 428.721375,286.946045 
	C428.370392,286.673065 426.920532,287.409851 426.259949,288.009369 
	C423.671570,290.358307 421.170258,292.805878 418.688293,295.268921 
	C398.464386,315.338654 378.206421,335.374725 358.122101,355.583282 
	C356.495819,357.219635 355.286774,360.046448 355.238892,362.348236 
	C354.954834,376.008667 355.482330,389.695068 354.898132,403.336792 
	C354.544678,411.590149 353.597626,420.041901 351.337463,427.953156 
	C337.590271,476.072815 289.222137,505.591675 239.722458,497.356171 
	C189.270508,488.962219 152.418365,445.137604 153.631119,394.498108 
	C153.862473,384.837616 153.654617,375.166595 153.646072,364.500397 
M386.155945,204.656693 
	C327.929138,262.022461 269.702301,319.388214 211.475494,376.753967 
	C211.787598,377.251007 212.099686,377.748077 212.411789,378.245117 
	C214.028809,378.245117 215.645828,378.245728 217.262848,378.245087 
	C239.253036,378.236511 261.277466,377.493927 283.219513,378.517426 
	C294.820099,379.058563 302.501495,375.041077 310.473297,367.099274 
	C355.785858,321.957031 401.623871,277.342224 447.297302,232.562439 
	C448.286560,231.592545 449.444305,230.794495 451.370575,229.226883 
	C451.777985,232.003815 452.246185,233.707687 452.244690,235.411118 
	C452.225922,256.400787 452.088409,277.390503 452.153961,298.379669 
	C452.159943,300.278320 453.360443,302.173218 454.006195,304.069824 
	C455.909729,303.163391 458.337067,302.726593 459.635864,301.277985 
	C472.755035,286.645752 485.740936,271.892395 498.607391,257.037262 
	C500.125244,255.284821 501.322235,252.800552 501.625336,250.517120 
	C507.586670,205.607452 513.395508,160.677551 519.229614,115.750999 
	C519.966858,110.073730 518.928955,109.115860 513.359619,110.583115 
	C462.824738,123.896477 412.288025,137.203171 361.799255,150.689484 
	C359.765594,151.232727 358.205414,153.548599 356.424591,155.038559 
	C357.883057,156.618546 359.050018,158.766693 360.846283,159.688187 
	C374.620270,166.754364 388.521240,173.572754 402.368988,180.495682 
	C404.079987,181.351044 405.709869,182.368683 406.432770,182.777267 
	C399.741943,190.011322 393.199646,197.084747 386.155945,204.656693 
M652.493652,257.500061 
	C652.493652,246.093933 652.493652,234.687805 652.493652,223.317352 
	C637.404907,223.317352 623.124573,223.317352 608.544617,223.317352 
	C608.438293,224.971710 608.263794,226.426697 608.263000,227.881790 
	C608.236145,275.031525 607.439026,322.198486 608.469727,369.325409 
	C609.254150,405.189911 626.940125,431.272461 660.157532,445.767181 
	C680.870667,454.805542 702.781372,456.217468 724.897400,452.997131 
	C771.903564,446.152557 801.781555,409.159027 801.635193,366.156525 
	C801.479309,320.340118 801.577759,274.522858 801.565247,228.705948 
	C801.564758,226.917999 801.565125,225.130035 801.565125,223.240082 
	C786.719910,223.240082 772.461670,223.240082 757.819458,223.240082 
	C757.819458,225.086395 757.820190,226.712311 757.819336,228.338242 
	C757.796997,273.488739 757.771606,318.639252 757.754395,363.789734 
	C757.750916,372.919891 756.106750,381.711456 751.862244,389.838531 
	C737.453430,417.427216 694.638123,424.593567 669.685059,403.829315 
	C656.795715,393.103668 652.501526,378.989685 652.499878,362.961792 
	C652.496277,328.141205 652.496094,293.320648 652.493652,257.500061 
M1130.494507,413.161133 
	C1098.493164,420.122101 1071.588257,409.766815 1047.952881,388.148560 
	C1039.002808,400.216705 1030.430908,411.774933 1021.925903,423.242981 
	C1022.442627,423.871735 1022.618286,424.168884 1022.868835,424.374939 
	C1023.640137,425.008942 1024.433472,425.616730 1025.229736,426.219604 
	C1050.274536,445.181702 1078.588623,454.156464 1109.916626,454.573486 
	C1130.776611,454.851166 1150.733276,451.894623 1169.119507,441.348389 
	C1195.229614,426.371643 1207.776978,396.876221 1199.953247,368.300385 
	C1194.185913,347.235474 1179.874512,333.532959 1160.442383,325.396667 
	C1145.286499,319.050781 1129.350830,314.591980 1113.911499,308.889130 
	C1104.748901,305.504730 1095.253784,302.345459 1087.022949,297.275208 
	C1075.289429,290.047302 1074.666382,272.918671 1085.478027,264.306030 
	C1090.257324,260.498810 1096.369873,257.477875 1102.328247,256.195862 
	C1125.082153,251.300095 1145.898315,256.782501 1164.861572,269.930695 
	C1166.992798,271.408356 1169.079346,272.950439 1171.346069,274.577026 
	C1180.152466,263.504578 1188.619385,252.858841 1197.372925,241.852753 
	C1193.639771,239.313293 1190.350220,236.792221 1186.804077,234.707123 
	C1150.925781,213.610733 1113.249878,207.782013 1073.815308,223.081284 
	C1041.921753,235.454926 1025.251953,268.490448 1033.959229,299.974823 
	C1039.421509,319.725769 1053.260376,332.103241 1071.163696,339.836212 
	C1086.409180,346.421234 1102.429443,351.194366 1118.005859,357.038574 
	C1126.401855,360.188629 1135.095703,363.037537 1142.757935,367.546844 
	C1158.352905,376.724670 1158.495239,397.314758 1143.431274,407.328430 
	C1139.755005,409.772217 1135.360840,411.135834 1130.494507,413.161133 
M829.211914,308.514404 
	C829.211914,373.253052 829.211914,437.991699 829.211914,502.790039 
	C843.375916,502.790039 856.798706,502.790039 870.706238,502.790039 
	C870.706238,489.765869 870.706299,476.979584 870.706299,464.193298 
	C870.706299,451.572540 870.706238,438.951752 870.706238,425.306274 
	C877.775574,434.611877 884.703125,442.320679 894.231262,446.843994 
	C917.739319,458.004028 941.011902,456.557007 962.859314,442.952545 
	C990.725769,425.599976 1001.662903,399.087006 999.822449,367.166199 
	C998.115784,337.566101 985.057434,314.281311 958.461304,299.787140 
	C931.399231,285.039062 899.225098,289.375336 879.332642,310.226196 
	C876.438965,313.259338 874.016418,316.741943 870.598877,320.980164 
	C870.598877,311.788391 870.598877,303.742310 870.598877,295.627075 
	C856.519409,295.627075 842.995117,295.627075 829.214600,295.627075 
	C829.214600,299.882172 829.214600,303.701782 829.211914,308.514404 
M1276.436768,298.018005 
	C1276.436768,267.905212 1276.436768,237.792435 1276.436768,207.531555 
	C1261.602539,207.531555 1247.356567,207.531555 1232.784912,207.531555 
	C1232.784912,288.059174 1232.784912,368.287872 1232.784912,448.678284 
	C1247.381226,448.678284 1261.745850,448.678284 1276.379150,448.678284 
	C1276.379150,436.131897 1276.340698,423.977783 1276.426880,411.824554 
	C1276.437988,410.260529 1276.582397,408.197937 1277.538574,407.221191 
	C1283.792358,400.832153 1290.286621,394.678619 1296.903198,388.253021 
	C1298.076660,389.546814 1299.011719,390.459229 1299.811890,391.477722 
	C1313.802490,409.284546 1327.827271,427.065033 1341.702393,444.961609 
	C1343.919678,447.821533 1346.131348,449.315857 1349.972534,449.164429 
	C1358.456543,448.829926 1366.962769,449.056824 1375.459839,449.055817 
	C1382.857178,449.054932 1390.254395,449.055634 1399.108154,449.055634 
	C1374.524048,419.720398 1350.867188,391.491547 1327.044434,363.064941 
	C1349.157593,340.583344 1370.958862,318.418793 1393.213501,295.793365 
	C1391.524902,295.583252 1390.438599,295.331879 1389.352051,295.330353 
	C1374.357178,295.309235 1359.359497,295.176483 1344.370483,295.473816 
	C1341.926758,295.522308 1338.913818,296.919281 1337.195068,298.692474 
	C1323.746094,312.567169 1310.531250,326.669525 1297.280884,340.736145 
	C1290.484741,347.951019 1283.763672,355.236694 1276.463623,363.075653 
	C1276.463623,341.114624 1276.463623,320.034760 1276.436768,298.018005 
M1632.493530,207.215576 
	C1622.697021,207.215576 1612.900513,207.215576 1602.744629,207.215576 
	C1602.744629,288.039185 1602.744629,368.415253 1602.744629,448.682922 
	C1617.684326,448.682922 1632.250122,448.682922 1646.781738,448.682922 
	C1646.781738,368.057434 1646.781738,287.832458 1646.781738,207.215958 
	C1642.093994,207.215958 1637.791626,207.215958 1632.493530,207.215576 
M1562.158325,352.500000 
	C1562.158325,304.224060 1562.158325,255.948135 1562.158325,207.518158 
	C1547.213013,207.518158 1532.815186,207.518158 1518.233398,207.518158 
	C1518.233398,288.107178 1518.233398,368.336334 1518.233398,448.746155 
	C1532.972778,448.746155 1547.362549,448.746155 1562.158203,448.746155 
	C1562.158203,416.762665 1562.158203,385.131348 1562.158325,352.500000 
M1756.440308,292.733276 
	C1740.395264,297.177368 1731.515747,309.235382 1723.875488,323.024017 
	C1723.875488,313.947845 1723.875488,304.871643 1723.875488,295.791779 
	C1709.470825,295.791779 1695.456787,295.791779 1681.373291,295.791779 
	C1681.373291,347.050507 1681.373291,397.799500 1681.373291,448.654053 
	C1695.981812,448.654053 1710.319702,448.654053 1724.902588,448.654053 
	C1724.902588,446.360229 1724.901367,444.540009 1724.902832,442.719788 
	C1724.920776,419.564423 1724.794434,396.407837 1724.995361,373.254059 
	C1725.230103,346.198273 1742.606567,329.477234 1768.485474,331.326630 
	C1773.901489,331.713715 1779.254883,332.977875 1785.107910,333.913086 
	C1785.107910,321.176178 1785.197021,308.547974 1784.950317,295.926300 
	C1784.929077,294.836884 1782.725098,292.921753 1781.469360,292.865936 
	C1773.398315,292.507111 1765.309082,292.559967 1756.440308,292.733276 
M1470.144165,344.500000 
	C1470.144165,328.249176 1470.144165,311.998322 1470.144165,295.601654 
	C1454.881958,295.601654 1440.304077,295.601654 1425.454346,295.601654 
	C1425.454346,346.809570 1425.454346,397.694092 1425.454346,448.750336 
	C1440.409912,448.750336 1455.114380,448.750336 1470.145142,448.750336 
	C1470.145142,414.095184 1470.145142,379.797577 1470.144165,344.500000 
M1894.082642,441.417175 
	C1894.082642,443.848267 1894.082642,446.279327 1894.082642,448.727203 
	C1901.661011,448.727203 1908.586304,448.727203 1916.095825,448.727203 
	C1916.095825,442.172760 1916.027222,435.895996 1916.110718,429.621246 
	C1916.261353,418.308777 1916.080078,406.968262 1916.861206,395.696564 
	C1917.350342,388.638489 1921.239746,383.109894 1928.520508,381.017090 
	C1940.038940,377.706116 1949.330078,384.598785 1949.697021,397.312683 
	C1950.138794,412.622284 1949.868774,427.952454 1949.905762,443.273712 
	C1949.910034,445.041382 1949.906372,446.809021 1949.906372,448.662109 
	C1957.552734,448.662109 1964.625732,448.662109 1971.701050,448.662109 
	C1971.701050,427.429321 1972.932251,406.399872 1971.333618,385.587830 
	C1969.908325,367.034119 1951.941650,356.664246 1933.819824,361.473938 
	C1926.279297,363.475342 1920.634033,367.973175 1915.388184,375.551849 
	C1915.388184,370.276337 1915.388184,366.570129 1915.388184,362.804932 
	C1908.067993,362.804932 1901.313354,362.804932 1894.078003,362.804932 
	C1894.078003,388.888184 1894.078003,414.663666 1894.082642,441.417175 
M1475.858398,244.768005 
	C1475.621826,243.291122 1475.445557,241.801605 1475.139404,240.339310 
	C1472.537231,227.913925 1461.527832,218.956619 1448.244629,218.430008 
	C1435.189941,217.912491 1422.862671,226.244293 1419.531982,238.084885 
	C1416.398560,249.223145 1419.127075,259.044586 1427.791138,266.571167 
	C1436.859619,274.449158 1447.553345,276.027954 1458.575195,271.244934 
	C1469.558838,266.478455 1475.828247,258.027679 1475.858398,244.768005 
M1872.886719,448.682312 
	C1873.111694,447.576111 1873.531250,446.470245 1873.532959,445.363647 
	C1873.576172,419.209961 1873.580566,393.056183 1873.564087,366.902435 
	C1873.563110,365.488464 1873.318481,364.074646 1873.209351,362.897552 
	C1865.560913,362.897552 1858.458374,362.897552 1851.343018,362.897552 
	C1851.343018,391.656403 1851.343018,420.070374 1851.343018,448.371307 
	C1851.932617,448.619781 1852.226440,448.850342 1852.521851,448.852386 
	C1859.016235,448.897614 1865.510742,448.917480 1872.886719,448.682312 
M1808.061523,449.366272 
	C1817.399414,447.751434 1823.165405,441.225861 1823.039062,432.415924 
	C1822.910645,423.469940 1816.410889,416.369568 1807.382324,415.312958 
	C1799.395508,414.378204 1791.762329,419.761139 1789.376221,428.010834 
	C1786.050415,439.509949 1794.003906,449.045380 1808.061523,449.366272 
M1043.590942,570.207031 
	C1052.626953,565.164185 1056.438477,556.781738 1054.471558,546.278320 
	C1052.772827,537.207581 1046.924438,531.494202 1037.545654,530.695801 
	C1031.476074,530.179138 1025.326660,530.598694 1018.990845,530.598694 
	C1018.990845,544.466980 1018.990845,558.188232 1018.990845,572.994324 
	C1027.209229,572.140015 1035.049072,571.325012 1043.590942,570.207031 
M888.423279,540.105957 
	C889.711426,539.375366 890.999573,538.644775 892.221497,537.951782 
	C880.448914,525.165771 861.614868,528.480957 856.550598,542.845459 
	C853.079102,552.692261 855.556885,563.571411 862.484863,568.900635 
	C869.768921,574.503784 881.854736,574.501221 890.201477,568.701965 
	C891.378967,567.883911 892.625488,566.246277 892.700562,564.923340 
	C892.990417,559.815063 892.818298,554.680603 892.818298,549.321655 
	C886.954407,549.321655 881.559631,549.321655 876.004639,549.321655 
	C876.004639,551.484009 876.004639,553.395203 876.004639,555.454895 
	C879.039246,555.593689 881.801392,555.719971 884.505310,555.843567 
	C885.483826,563.825378 883.904724,565.700623 876.407532,565.816162 
	C867.705933,565.950195 862.448059,559.437927 863.400146,549.511414 
	C863.904297,544.255737 865.839905,539.708374 871.200745,537.707886 
	C876.138367,535.865356 880.618774,536.760254 884.574585,540.468140 
	C885.193237,541.048096 886.797180,540.576782 888.423279,540.105957 
M944.950317,540.116699 
	C943.536560,534.871277 939.833008,531.567139 934.768982,531.122131 
	C927.592834,530.491455 920.319946,530.962158 912.837524,530.962158 
	C912.837524,543.449707 912.833130,555.911987 912.844788,568.374268 
	C912.845886,569.523926 912.948669,570.673523 913.007935,571.900146 
	C915.708557,571.900146 918.248413,571.900146 921.232178,571.900146 
	C921.232178,566.786072 921.232178,562.037781 921.232178,557.551514 
	C926.404297,556.044434 929.617737,557.486572 931.354126,562.268433 
	C932.019531,564.101074 933.424561,565.660095 934.456482,567.365662 
	C937.898376,573.054382 939.054871,573.472900 946.055481,571.393555 
	C942.959839,566.285828 939.884583,561.211792 936.635437,555.850769 
	C943.370789,552.916687 945.958069,547.865662 944.950317,540.116699 
M1600.098389,530.296448 
	C1598.015747,530.296448 1595.932983,530.296448 1593.426025,530.296448 
	C1593.426025,539.063477 1593.492554,547.198608 1593.404785,555.332031 
	C1593.335327,561.781494 1590.513794,564.943665 1584.750244,565.356262 
	C1578.220093,565.823792 1574.427368,562.295044 1574.240845,555.031677 
	C1574.032471,546.920288 1574.192993,538.799377 1574.192993,530.621338 
	C1571.242676,530.621338 1568.847778,530.621338 1566.146484,530.621338 
	C1566.146484,538.933594 1566.141724,546.900146 1566.151978,554.866760 
	C1566.153564,556.030273 1566.141724,557.204102 1566.281982,558.355408 
	C1567.318359,566.863220 1572.840210,572.129883 1581.461670,572.882812 
	C1591.100342,573.724548 1599.647949,569.749329 1600.483276,562.183472 
	C1601.635254,551.746887 1600.871704,541.098816 1600.098389,530.296448 
M1079.319092,572.130493 
	C1087.268555,572.130493 1095.217896,572.130493 1103.205322,572.130493 
	C1103.205322,569.631348 1103.205322,567.532593 1103.205322,564.797729 
	C1096.066895,564.797729 1089.190918,564.797729 1082.389648,564.797729 
	C1082.389648,561.028625 1082.389648,557.906982 1082.389648,554.190430 
	C1088.645386,554.190430 1094.682251,554.190430 1100.594604,554.190430 
	C1100.594604,551.673645 1100.594604,549.763184 1100.594604,547.364502 
	C1094.384521,547.364502 1088.476196,547.364502 1082.452637,547.364502 
	C1082.452637,543.788391 1082.452637,540.713257 1082.452637,537.309875 
	C1089.365723,537.309875 1095.995361,537.309875 1102.657715,537.309875 
	C1102.657715,534.904053 1102.657715,532.833740 1102.657715,530.623474 
	C1093.094238,530.623474 1083.834229,530.623474 1074.337646,530.623474 
	C1074.337646,544.470825 1074.337646,558.043884 1074.337646,571.878906 
	C1075.828613,571.969910 1077.115112,572.048401 1079.319092,572.130493 
M1348.840454,543.369751 
	C1347.425171,544.863464 1346.009888,546.357178 1343.716064,548.778076 
	C1343.716064,541.820435 1343.716064,536.122131 1343.716064,530.595947 
	C1340.883057,530.595947 1338.614868,530.595947 1336.118652,530.595947 
	C1336.118652,544.519348 1336.118652,558.126831 1336.118652,571.960449 
	C1338.623901,571.960449 1341.063477,571.960449 1343.453491,571.960449 
	C1345.595581,566.031433 1340.726318,558.212097 1348.816772,554.066528 
	C1352.011353,558.446899 1355.617676,562.479919 1358.153809,567.100403 
	C1361.320312,572.869446 1365.854248,572.882690 1371.685547,571.717041 
	C1365.710815,563.776306 1359.951538,556.121887 1353.996582,548.207336 
	C1359.508423,542.358521 1364.865112,536.674500 1370.318604,530.887756 
	C1363.015503,528.627869 1358.685791,531.664062 1355.020386,536.548035 
	C1353.329102,538.801453 1351.238770,540.755432 1348.840454,543.369751 
M1179.713989,554.960083 
	C1179.838623,556.450989 1179.859619,557.959167 1180.104980,559.429932 
	C1181.532715,567.991150 1188.001709,572.920837 1197.727173,572.920166 
	C1207.185547,572.919495 1214.140015,567.976440 1214.722290,559.524963 
	C1215.380005,549.976440 1214.873779,540.347717 1214.873779,530.606689 
	C1212.112915,530.606689 1209.717529,530.606689 1206.901855,530.606689 
	C1206.901855,536.696777 1206.990723,542.489380 1206.870239,548.277710 
	C1206.791138,552.072937 1206.778687,555.932861 1206.068115,559.635498 
	C1205.207764,564.117371 1201.587769,565.635376 1197.429565,565.580505 
	C1193.130737,565.523865 1189.458130,563.938538 1188.274048,559.378174 
	C1187.615723,556.842834 1187.530396,554.115906 1187.491821,551.470825 
	C1187.390991,544.551819 1187.457886,537.630310 1187.457886,530.807373 
	C1184.513672,530.807373 1182.283447,530.807373 1179.711914,530.807373 
	C1179.711914,538.782837 1179.711914,546.418518 1179.713989,554.960083 
M1314.712280,537.294067 
	C1314.353394,536.035767 1314.402588,534.198242 1313.570312,533.611633 
	C1307.444092,529.293396 1300.645752,528.570801 1293.661865,531.049011 
	C1288.302246,532.950928 1285.307983,537.287476 1285.271484,542.294067 
	C1285.236450,547.097778 1287.921265,550.367310 1293.925781,552.506165 
	C1297.207275,553.675171 1300.782104,554.191528 1303.842285,555.751892 
	C1305.904785,556.803589 1307.299194,559.165161 1308.992554,560.940674 
	C1306.934326,562.506775 1304.785889,565.485779 1302.835571,565.361145 
	C1297.942017,565.048462 1293.138184,563.331909 1287.398804,561.963989 
	C1286.808105,562.587646 1285.254517,564.227661 1283.720459,565.847107 
	C1290.518921,572.914185 1300.622192,574.967102 1309.254272,571.320679 
	C1314.595215,569.064514 1317.131592,565.312012 1317.062012,559.769409 
	C1316.995361,554.468018 1314.597046,551.201355 1308.883423,549.171143 
	C1305.133545,547.838745 1301.122192,547.159668 1297.515747,545.545166 
	C1295.949585,544.843994 1294.056030,542.402344 1294.224609,540.977600 
	C1294.401123,539.484436 1296.918213,537.085449 1298.332031,537.140503 
	C1302.759521,537.313171 1307.149170,538.455933 1311.553345,539.222839 
	C1311.651611,539.781860 1311.749878,540.340820 1311.848022,540.899780 
	C1312.653442,539.864197 1313.458740,538.828613 1314.712280,537.294067 
M992.328064,570.162170 
	C995.229797,571.026794 998.131531,571.891418 1001.033264,572.756042 
	C996.766113,559.203003 991.964172,547.177856 987.236328,535.123718 
	C986.204956,532.494141 985.698425,530.148438 981.717896,530.111145 
	C977.596619,530.072571 976.296692,532.163269 975.124634,535.252808 
	C972.768799,541.462708 970.335510,547.643311 967.913757,553.828003 
	C965.584412,559.776978 963.229187,565.715820 960.528015,572.565063 
	C964.292419,571.142578 968.635010,574.587158 969.852722,569.759644 
	C971.345642,563.841003 974.796021,562.400146 980.269897,563.045410 
	C983.366516,563.410461 986.541504,563.111267 989.650146,563.111267 
	C990.515259,565.397583 991.279236,567.416687 992.328064,570.162170 
M1267.111938,548.404419 
	C1269.229370,538.170288 1264.817505,531.569458 1254.549438,530.610046 
	C1248.481323,530.043030 1242.316772,530.506287 1235.820923,530.506287 
	C1235.820923,544.510559 1235.820923,558.196106 1235.820923,571.994995 
	C1238.542236,571.994995 1240.975586,571.994995 1243.988159,571.994995 
	C1243.988159,567.216858 1243.988159,562.683533 1243.988159,557.854187 
	C1247.548706,557.854187 1250.554199,558.096619 1253.506226,557.802856 
	C1259.383423,557.218079 1264.594360,555.350586 1267.111938,548.404419 
M1623.006470,572.093567 
	C1625.292236,572.093567 1627.577881,572.093567 1630.302246,572.093567 
	C1630.302246,567.350220 1630.302246,562.917175 1630.302246,557.825989 
	C1634.362305,557.825989 1638.020142,558.132019 1641.608398,557.763123 
	C1649.400513,556.962097 1654.199219,551.895691 1654.293335,544.851685 
	C1654.397705,537.036560 1649.773682,531.230896 1641.924927,530.535950 
	C1635.524902,529.969238 1629.034912,530.420654 1622.276978,530.420654 
	C1622.276978,544.462952 1622.276978,558.059387 1623.006470,572.093567 
M805.942139,569.080078 
	C806.701172,575.601746 811.218018,570.630005 814.214844,572.412109 
	C814.214844,567.221802 814.214844,562.794678 814.214844,557.940247 
	C816.938171,557.940247 819.236938,558.046692 821.521240,557.910461 
	C823.832581,557.772583 826.197998,557.655396 828.419739,557.072144 
	C834.668213,555.431641 838.186096,550.667969 838.140137,544.321716 
	C838.092163,537.694763 834.484558,531.936157 828.236572,531.194580 
	C820.972961,530.332397 813.528564,530.993530 805.937256,530.993530 
	C805.937256,543.557861 805.937256,555.857117 805.942139,569.080078 
M678.499512,547.680542 
	C655.248901,547.680542 631.998352,547.680542 608.636047,547.680542 
	C608.636047,550.412048 608.636047,552.636169 608.636047,554.748901 
	C639.170837,554.748901 669.375427,554.748901 699.629639,554.748901 
	C699.629639,552.289001 699.629639,550.187988 699.629639,547.683472 
	C692.768616,547.683472 686.133972,547.683472 678.499512,547.680542 
M1884.611084,555.139099 
	C1913.991455,555.139099 1943.371704,555.139099 1972.632568,555.139099 
	C1972.632568,552.200317 1972.632568,550.089722 1972.632568,547.769897 
	C1942.326294,547.769897 1912.259888,547.769897 1880.921631,547.769897 
	C1881.973511,550.619629 1882.807129,552.877991 1884.611084,555.139099 
M1755.872803,572.063660 
	C1756.257812,570.583496 1756.918701,569.113770 1756.974854,567.621216 
	C1757.128540,563.532532 1757.027710,559.434326 1757.027710,554.856079 
	C1763.272217,554.856079 1768.842773,554.856079 1774.417358,554.856079 
	C1774.417358,552.315125 1774.417358,550.287659 1774.417358,547.843506 
	C1768.459961,547.843506 1762.892090,547.843506 1757.311768,547.843506 
	C1757.311768,544.151245 1757.311768,540.888916 1757.311768,537.091919 
	C1763.936279,537.091919 1770.320190,537.091919 1776.712158,537.091919 
	C1776.712158,534.615417 1776.712158,532.679871 1776.712158,530.575562 
	C1767.419800,530.575562 1758.363892,530.575562 1749.199585,530.575562 
	C1749.199585,544.558472 1749.199585,558.233215 1749.199585,572.164001 
	C1751.401611,572.164001 1753.213379,572.164001 1755.872803,572.063660 
M1848.815552,338.914093 
	C1850.688354,346.672882 1855.425903,350.708801 1862.616333,350.670959 
	C1869.015381,350.637299 1874.600708,346.587372 1876.000244,340.823273 
	C1877.352295,335.254608 1876.443359,330.197388 1871.842651,326.388519 
	C1867.212158,322.555023 1861.936523,321.733490 1856.499390,324.372894 
	C1850.855469,327.112732 1848.256226,331.821594 1848.815552,338.914093 
M1806.212646,568.999146 
	C1806.876099,575.473572 1811.377930,570.735413 1814.502319,572.506042 
	C1814.502319,560.296692 1814.502319,548.940002 1814.502319,537.072754 
	C1818.937012,537.072754 1822.816162,537.072754 1826.617798,537.072754 
	C1826.617798,534.592285 1826.617798,532.662537 1826.617798,530.686401 
	C1815.522583,530.686401 1804.684570,530.686401 1793.968262,530.686401 
	C1793.968262,533.162170 1793.968262,535.217712 1793.968262,537.532776 
	C1798.127441,537.532776 1801.905151,537.532776 1806.212646,537.532776 
	C1806.212646,547.893921 1806.212646,557.992981 1806.212646,568.999146 
M1687.474609,572.187927 
	C1691.593262,572.187927 1695.712036,572.187927 1700.004150,572.187927 
	C1700.004150,569.574280 1700.004150,567.480713 1700.004150,564.865295 
	C1693.582642,564.865295 1687.362061,564.865295 1680.662354,564.865295 
	C1680.662354,553.129272 1680.662354,541.906067 1680.662354,530.699097 
	C1677.770508,530.699097 1675.401855,530.699097 1672.904297,530.699097 
	C1672.904297,544.640076 1672.904297,558.208557 1672.904297,572.190613 
	C1677.593628,572.190613 1682.042847,572.190613 1687.474609,572.187927 
M1423.827515,572.259460 
	C1431.119995,572.259460 1438.412354,572.259460 1445.779785,572.259460 
	C1445.779785,569.596558 1445.779785,567.387268 1445.779785,564.701294 
	C1439.204224,564.701294 1432.978027,564.701294 1426.305664,564.701294 
	C1426.305664,552.983582 1426.305664,541.744080 1426.305664,530.571960 
	C1423.425903,530.571960 1421.026733,530.571960 1418.447266,530.571960 
	C1418.447266,544.515625 1418.447266,558.106079 1418.447266,572.049011 
	C1420.002808,572.121643 1421.457275,572.189514 1423.827515,572.259460 
M1472.224854,531.403748 
	C1469.671631,530.987183 1467.118408,530.570618 1464.357178,530.120117 
	C1464.357178,544.721191 1464.357178,558.299988 1464.357178,571.948059 
	C1473.555664,571.948059 1482.474731,571.948059 1491.463623,571.948059 
	C1491.463623,569.554932 1491.463623,567.479553 1491.463623,564.994507 
	C1485.070679,564.994507 1478.976440,564.994507 1472.302368,564.994507 
	C1472.302368,553.814575 1472.302368,543.041443 1472.224854,531.403748 
M1723.418945,572.247864 
	C1724.686035,572.140198 1725.953003,572.032471 1727.176514,571.928528 
	C1727.176514,557.960876 1727.176514,544.356506 1727.176514,530.723877 
	C1724.399536,530.723877 1721.868042,530.723877 1719.072266,530.723877 
	C1719.072266,543.798462 1719.163818,556.450012 1719.003784,569.098389 
	C1718.966797,572.026306 1720.257812,572.496216 1723.418945,572.247864 
M1396.873413,570.929321 
	C1396.873413,557.545776 1396.873413,544.162292 1396.873413,530.763733 
	C1393.780273,530.763733 1391.403076,530.763733 1388.907227,530.763733 
	C1388.907227,544.678711 1388.907227,558.235535 1388.907227,572.256531 
	C1391.658936,572.068298 1394.091919,571.901917 1396.873413,570.929321 
M1840.145142,569.680786 
	C1842.363770,570.628662 1844.558960,572.174927 1846.811157,572.262451 
	C1847.875977,572.303955 1849.719971,569.679199 1850.029175,568.039612 
	C1850.607056,564.977478 1848.681763,562.729004 1845.607300,562.671143 
	C1841.651245,562.596497 1839.520874,564.845459 1840.145142,569.680786 
M1122.496460,569.795837 
	C1123.305176,570.595154 1124.172852,572.119873 1124.911865,572.059875 
	C1127.267212,571.868713 1130.128540,571.706177 1131.692993,570.303772 
	C1132.630615,569.463379 1132.228882,565.133545 1131.158936,564.492493 
	C1129.322510,563.392334 1126.300171,563.363464 1124.158325,564.060364 
	C1123.070679,564.414185 1122.817139,567.331543 1122.496460,569.795837 
M1518.018433,571.606812 
	C1520.707275,567.149292 1519.764648,563.270691 1515.630737,563.003967 
	C1513.834473,562.888123 1511.322876,563.981750 1510.266968,565.380005 
	C1509.413818,566.509521 1509.600342,570.006226 1510.481934,570.539001 
	C1512.399536,571.697693 1515.055298,571.634399 1518.018433,571.606812 
z"/>
<path fill="#0C0C0C" opacity="1.000000" stroke="none" 
	d="
M153.647736,365.000427 
	C153.654617,375.166595 153.862473,384.837616 153.631119,394.498108 
	C152.418365,445.137604 189.270508,488.962219 239.722458,497.356171 
	C289.222137,505.591675 337.590271,476.072815 351.337463,427.953156 
	C353.597626,420.041901 354.544678,411.590149 354.898132,403.336792 
	C355.482330,389.695068 354.954834,376.008667 355.238892,362.348236 
	C355.286774,360.046448 356.495819,357.219635 358.122101,355.583282 
	C378.206421,335.374725 398.464386,315.338654 418.688293,295.268921 
	C421.170258,292.805878 423.671570,290.358307 426.259949,288.009369 
	C426.920532,287.409851 428.370392,286.673065 428.721375,286.946045 
	C429.485779,287.540497 430.158203,288.729828 430.194824,289.701447 
	C430.358002,294.028564 430.293640,298.364624 430.293976,302.697449 
	C430.296692,335.862366 430.681549,369.032776 430.209869,402.190979 
	C429.386414,460.079315 405.112762,506.741241 359.012451,540.970215 
	C274.155975,603.975159 170.985687,576.076965 116.532768,509.543823 
	C90.910164,478.236908 77.915138,441.864899 77.839249,401.245056 
	C77.685432,318.916260 77.723999,236.587128 77.683372,154.258133 
	C77.682564,152.625793 77.683266,150.993469 77.683266,148.968140 
	C103.111885,148.968140 128.162094,148.968140 153.646072,148.968140 
	C153.646072,220.930832 153.646072,292.715607 153.647736,365.000427 
z"/>
<path fill="#058E79" opacity="1.000000" stroke="none" 
	d="
M386.406677,204.407440 
	C393.199646,197.084747 399.741943,190.011322 406.432770,182.777267 
	C405.709869,182.368683 404.079987,181.351044 402.368988,180.495682 
	C388.521240,173.572754 374.620270,166.754364 360.846283,159.688187 
	C359.050018,158.766693 357.883057,156.618546 356.424591,155.038574 
	C358.205414,153.548599 359.765594,151.232727 361.799255,150.689484 
	C412.288025,137.203171 462.824738,123.896477 513.359619,110.583115 
	C518.928955,109.115860 519.966858,110.073730 519.229614,115.750999 
	C513.395508,160.677551 507.586670,205.607452 501.625336,250.517120 
	C501.322235,252.800552 500.125244,255.284821 498.607391,257.037262 
	C485.740936,271.892395 472.755035,286.645752 459.635864,301.277985 
	C458.337067,302.726593 455.909729,303.163391 454.006195,304.069824 
	C453.360443,302.173218 452.159943,300.278320 452.153961,298.379669 
	C452.088409,277.390503 452.225922,256.400787 452.244690,235.411118 
	C452.246185,233.707687 451.777985,232.003815 451.370575,229.226883 
	C449.444305,230.794495 448.286560,231.592545 447.297302,232.562439 
	C401.623871,277.342224 355.785858,321.957031 310.473297,367.099274 
	C302.501495,375.041077 294.820099,379.058563 283.219513,378.517426 
	C261.277466,377.493927 239.253036,378.236511 217.262848,378.245087 
	C215.645828,378.245728 214.028809,378.245117 212.411789,378.245117 
	C212.099686,377.748077 211.787598,377.251007 211.475494,376.753967 
	C269.702301,319.388214 327.929138,262.022461 386.406677,204.407440 
z"/>
<path fill="#0D0D0D" opacity="1.000000" stroke="none" 
	d="
M652.494019,258.000061 
	C652.496094,293.320648 652.496277,328.141205 652.499878,362.961792 
	C652.501526,378.989685 656.795715,393.103668 669.685059,403.829315 
	C694.638123,424.593567 737.453430,417.427216 751.862244,389.838531 
	C756.106750,381.711456 757.750916,372.919891 757.754395,363.789734 
	C757.771606,318.639252 757.796997,273.488739 757.819336,228.338242 
	C757.820190,226.712311 757.819458,225.086395 757.819458,223.240082 
	C772.461670,223.240082 786.719910,223.240082 801.565125,223.240082 
	C801.565125,225.130035 801.564758,226.917999 801.565247,228.705948 
	C801.577759,274.522858 801.479309,320.340118 801.635193,366.156525 
	C801.781555,409.159027 771.903564,446.152557 724.897400,452.997131 
	C702.781372,456.217468 680.870667,454.805542 660.157532,445.767181 
	C626.940125,431.272461 609.254150,405.189911 608.469727,369.325409 
	C607.439026,322.198486 608.236145,275.031525 608.263000,227.881790 
	C608.263794,226.426697 608.438293,224.971710 608.544617,223.317352 
	C623.124573,223.317352 637.404907,223.317352 652.493652,223.317352 
	C652.493652,234.687805 652.493652,246.093933 652.494019,258.000061 
z"/>
<path fill="#05907B" opacity="1.000000" stroke="none" 
	d="
M1130.895630,413.078613 
	C1135.360840,411.135834 1139.755005,409.772217 1143.431274,407.328430 
	C1158.495239,397.314758 1158.352905,376.724670 1142.757935,367.546844 
	C1135.095703,363.037537 1126.401855,360.188629 1118.005859,357.038574 
	C1102.429443,351.194366 1086.409180,346.421234 1071.163696,339.836212 
	C1053.260376,332.103241 1039.421509,319.725769 1033.959229,299.974823 
	C1025.251953,268.490448 1041.921753,235.454926 1073.815308,223.081284 
	C1113.249878,207.782013 1150.925781,213.610733 1186.804077,234.707123 
	C1190.350220,236.792221 1193.639771,239.313293 1197.372925,241.852753 
	C1188.619385,252.858841 1180.152466,263.504578 1171.346069,274.577026 
	C1169.079346,272.950439 1166.992798,271.408356 1164.861572,269.930695 
	C1145.898315,256.782501 1125.082153,251.300095 1102.328247,256.195862 
	C1096.369873,257.477875 1090.257324,260.498810 1085.478027,264.306030 
	C1074.666382,272.918671 1075.289429,290.047302 1087.022949,297.275208 
	C1095.253784,302.345459 1104.748901,305.504730 1113.911499,308.889130 
	C1129.350830,314.591980 1145.286499,319.050781 1160.442383,325.396667 
	C1179.874512,333.532959 1194.185913,347.235474 1199.953247,368.300385 
	C1207.776978,396.876221 1195.229614,426.371643 1169.119507,441.348389 
	C1150.733276,451.894623 1130.776611,454.851166 1109.916626,454.573486 
	C1078.588623,454.156464 1050.274536,445.181702 1025.229736,426.219604 
	C1024.433472,425.616730 1023.640137,425.008942 1022.868835,424.374939 
	C1022.618286,424.168884 1022.442627,423.871735 1021.925903,423.242981 
	C1030.430908,411.774933 1039.002808,400.216705 1047.952881,388.148560 
	C1071.588257,409.766815 1098.493164,420.122101 1130.895630,413.078613 
z"/>
<path fill="#0E0D0D" opacity="1.000000" stroke="none" 
	d="
M829.213257,308.017883 
	C829.214600,303.701782 829.214600,299.882172 829.214600,295.627075 
	C842.995117,295.627075 856.519409,295.627075 870.598877,295.627075 
	C870.598877,303.742310 870.598877,311.788391 870.598877,320.980164 
	C874.016418,316.741943 876.438965,313.259338 879.332642,310.226196 
	C899.225098,289.375336 931.399231,285.039062 958.461304,299.787140 
	C985.057434,314.281311 998.115784,337.566101 999.822449,367.166199 
	C1001.662903,399.087006 990.725769,425.599976 962.859314,442.952545 
	C941.011902,456.557007 917.739319,458.004028 894.231262,446.843994 
	C884.703125,442.320679 877.775574,434.611877 870.706238,425.306274 
	C870.706238,438.951752 870.706299,451.572540 870.706299,464.193298 
	C870.706299,476.979584 870.706238,489.765869 870.706238,502.790039 
	C856.798706,502.790039 843.375916,502.790039 829.211914,502.790039 
	C829.211914,437.991699 829.211914,373.253052 829.213257,308.017883 
M909.779480,417.097137 
	C910.611877,417.127258 911.444031,417.175201 912.276611,417.184875 
	C930.701050,417.398621 944.728516,409.342987 952.811707,393.065643 
	C961.294556,375.983368 959.778809,358.837585 947.309570,343.992920 
	C935.520630,329.958038 920.007141,325.761749 902.222656,330.130249 
	C882.880432,334.881317 869.094910,354.322296 870.165894,375.280426 
	C871.338074,398.219482 885.657715,413.666718 909.779480,417.097137 
z"/>
<path fill="#058F7A" opacity="1.000000" stroke="none" 
	d="
M1276.450195,298.486450 
	C1276.463623,320.034760 1276.463623,341.114624 1276.463623,363.075653 
	C1283.763672,355.236694 1290.484741,347.951019 1297.280884,340.736145 
	C1310.531250,326.669525 1323.746094,312.567169 1337.195068,298.692474 
	C1338.913818,296.919281 1341.926758,295.522308 1344.370483,295.473816 
	C1359.359497,295.176483 1374.357178,295.309235 1389.352051,295.330353 
	C1390.438599,295.331879 1391.524902,295.583252 1393.213501,295.793365 
	C1370.958862,318.418793 1349.157593,340.583344 1327.044434,363.064941 
	C1350.867188,391.491547 1374.524048,419.720398 1399.108154,449.055634 
	C1390.254395,449.055634 1382.857178,449.054932 1375.459839,449.055817 
	C1366.962769,449.056824 1358.456543,448.829926 1349.972534,449.164429 
	C1346.131348,449.315857 1343.919678,447.821533 1341.702393,444.961609 
	C1327.827271,427.065033 1313.802490,409.284546 1299.811890,391.477722 
	C1299.011719,390.459229 1298.076660,389.546814 1296.903198,388.253021 
	C1290.286621,394.678619 1283.792358,400.832153 1277.538574,407.221191 
	C1276.582397,408.197937 1276.437988,410.260529 1276.426880,411.824554 
	C1276.340698,423.977783 1276.379150,436.131897 1276.379150,448.678284 
	C1261.745850,448.678284 1247.381226,448.678284 1232.784912,448.678284 
	C1232.784912,368.287872 1232.784912,288.059174 1232.784912,207.531555 
	C1247.356567,207.531555 1261.602539,207.531555 1276.436768,207.531555 
	C1276.436768,237.792435 1276.436768,267.905212 1276.450195,298.486450 
z"/>
<path fill="#07907C" opacity="1.000000" stroke="none" 
	d="
M1632.991455,207.215759 
	C1637.791626,207.215958 1642.093994,207.215958 1646.781738,207.215958 
	C1646.781738,287.832458 1646.781738,368.057434 1646.781738,448.682922 
	C1632.250122,448.682922 1617.684326,448.682922 1602.744629,448.682922 
	C1602.744629,368.415253 1602.744629,288.039185 1602.744629,207.215576 
	C1612.900513,207.215576 1622.697021,207.215576 1632.991455,207.215759 
z"/>
<path fill="#05907B" opacity="1.000000" stroke="none" 
	d="
M1562.158203,353.000000 
	C1562.158203,385.131348 1562.158203,416.762665 1562.158203,448.746155 
	C1547.362549,448.746155 1532.972778,448.746155 1518.233398,448.746155 
	C1518.233398,368.336334 1518.233398,288.107178 1518.233398,207.518158 
	C1532.815186,207.518158 1547.213013,207.518158 1562.158325,207.518158 
	C1562.158325,255.948135 1562.158325,304.224060 1562.158203,353.000000 
z"/>
<path fill="#07907C" opacity="1.000000" stroke="none" 
	d="
M1756.833008,292.605438 
	C1765.309082,292.559967 1773.398315,292.507111 1781.469360,292.865936 
	C1782.725098,292.921753 1784.929077,294.836884 1784.950317,295.926300 
	C1785.197021,308.547974 1785.107910,321.176178 1785.107910,333.913086 
	C1779.254883,332.977875 1773.901489,331.713715 1768.485474,331.326630 
	C1742.606567,329.477234 1725.230103,346.198273 1724.995361,373.254059 
	C1724.794434,396.407837 1724.920776,419.564423 1724.902832,442.719788 
	C1724.901367,444.540009 1724.902588,446.360229 1724.902588,448.654053 
	C1710.319702,448.654053 1695.981812,448.654053 1681.373291,448.654053 
	C1681.373291,397.799500 1681.373291,347.050507 1681.373291,295.791779 
	C1695.456787,295.791779 1709.470825,295.791779 1723.875488,295.791779 
	C1723.875488,304.871643 1723.875488,313.947845 1723.875488,323.024017 
	C1731.515747,309.235382 1740.395264,297.177368 1756.833008,292.605438 
z"/>
<path fill="#06907B" opacity="1.000000" stroke="none" 
	d="
M1470.144653,345.000000 
	C1470.145142,379.797577 1470.145142,414.095184 1470.145142,448.750336 
	C1455.114380,448.750336 1440.409912,448.750336 1425.454346,448.750336 
	C1425.454346,397.694092 1425.454346,346.809570 1425.454346,295.601654 
	C1440.304077,295.601654 1454.881958,295.601654 1470.144165,295.601654 
	C1470.144165,311.998322 1470.144165,328.249176 1470.144653,345.000000 
z"/>
<path fill="#0F0F0E" opacity="1.000000" stroke="none" 
	d="
M1894.080322,440.928162 
	C1894.078003,414.663666 1894.078003,388.888184 1894.078003,362.804932 
	C1901.313354,362.804932 1908.067993,362.804932 1915.388184,362.804932 
	C1915.388184,366.570129 1915.388184,370.276337 1915.388184,375.551849 
	C1920.634033,367.973175 1926.279297,363.475342 1933.819824,361.473938 
	C1951.941650,356.664246 1969.908325,367.034119 1971.333618,385.587830 
	C1972.932251,406.399872 1971.701050,427.429321 1971.701050,448.662109 
	C1964.625732,448.662109 1957.552734,448.662109 1949.906372,448.662109 
	C1949.906372,446.809021 1949.910034,445.041382 1949.905762,443.273712 
	C1949.868774,427.952454 1950.138794,412.622284 1949.697021,397.312683 
	C1949.330078,384.598785 1940.038940,377.706116 1928.520508,381.017090 
	C1921.239746,383.109894 1917.350342,388.638489 1916.861206,395.696564 
	C1916.080078,406.968262 1916.261353,418.308777 1916.110718,429.621246 
	C1916.027222,435.895996 1916.095825,442.172760 1916.095825,448.727203 
	C1908.586304,448.727203 1901.661011,448.727203 1894.082642,448.727203 
	C1894.082642,446.279327 1894.082642,443.848267 1894.080322,440.928162 
z"/>
<path fill="#07907B" opacity="1.000000" stroke="none" 
	d="
M1475.881836,245.201477 
	C1475.828247,258.027679 1469.558838,266.478455 1458.575195,271.244934 
	C1447.553345,276.027954 1436.859619,274.449158 1427.791138,266.571167 
	C1419.127075,259.044586 1416.398560,249.223145 1419.531982,238.084885 
	C1422.862671,226.244293 1435.189941,217.912491 1448.244629,218.430008 
	C1461.527832,218.956619 1472.537231,227.913925 1475.139404,240.339310 
	C1475.445557,241.801605 1475.621826,243.291122 1475.881836,245.201477 
z"/>
<path fill="#131212" opacity="1.000000" stroke="none" 
	d="
M1872.446045,448.812256 
	C1865.510742,448.917480 1859.016235,448.897614 1852.521851,448.852386 
	C1852.226440,448.850342 1851.932617,448.619781 1851.343018,448.371307 
	C1851.343018,420.070374 1851.343018,391.656403 1851.343018,362.897552 
	C1858.458374,362.897552 1865.560913,362.897552 1873.209351,362.897552 
	C1873.318481,364.074646 1873.563110,365.488464 1873.564087,366.902435 
	C1873.580566,393.056183 1873.576172,419.209961 1873.532959,445.363647 
	C1873.531250,446.470245 1873.111694,447.576111 1872.446045,448.812256 
z"/>
<path fill="#0F0F0E" opacity="1.000000" stroke="none" 
	d="
M1807.663086,449.411560 
	C1794.003906,449.045380 1786.050415,439.509949 1789.376221,428.010834 
	C1791.762329,419.761139 1799.395508,414.378204 1807.382324,415.312958 
	C1816.410889,416.369568 1822.910645,423.469940 1823.039062,432.415924 
	C1823.165405,441.225861 1817.399414,447.751434 1807.663086,449.411560 
z"/>
<path fill="#171717" opacity="1.000000" stroke="none" 
	d="
M1043.239990,570.358521 
	C1035.049072,571.325012 1027.209229,572.140015 1018.990845,572.994324 
	C1018.990845,558.188232 1018.990845,544.466980 1018.990845,530.598694 
	C1025.326660,530.598694 1031.476074,530.179138 1037.545654,530.695801 
	C1046.924438,531.494202 1052.772827,537.207581 1054.471558,546.278320 
	C1056.438477,556.781738 1052.626953,565.164185 1043.239990,570.358521 
M1026.669312,561.374634 
	C1026.479126,563.613831 1026.754150,565.366943 1029.746948,565.041382 
	C1031.556274,564.844482 1033.412842,565.092529 1035.225220,564.910889 
	C1042.344360,564.197205 1046.396484,559.105896 1046.431885,550.961975 
	C1046.467041,542.896423 1042.777954,538.129211 1035.606445,537.349731 
	C1032.851562,537.050293 1030.036865,537.300903 1026.672119,537.300903 
	C1026.672119,545.213867 1026.672119,552.807678 1026.669312,561.374634 
z"/>
<path fill="#171616" opacity="1.000000" stroke="none" 
	d="
M888.184448,540.348755 
	C886.797180,540.576782 885.193237,541.048096 884.574585,540.468140 
	C880.618774,536.760254 876.138367,535.865356 871.200745,537.707886 
	C865.839905,539.708374 863.904297,544.255737 863.400146,549.511414 
	C862.448059,559.437927 867.705933,565.950195 876.407532,565.816162 
	C883.904724,565.700623 885.483826,563.825378 884.505310,555.843567 
	C881.801392,555.719971 879.039246,555.593689 876.004639,555.454895 
	C876.004639,553.395203 876.004639,551.484009 876.004639,549.321655 
	C881.559631,549.321655 886.954407,549.321655 892.818298,549.321655 
	C892.818298,554.680603 892.990417,559.815063 892.700562,564.923340 
	C892.625488,566.246277 891.378967,567.883911 890.201477,568.701965 
	C881.854736,574.501221 869.768921,574.503784 862.484863,568.900635 
	C855.556885,563.571411 853.079102,552.692261 856.550598,542.845459 
	C861.614868,528.480957 880.448914,525.165771 892.221497,537.951782 
	C890.999573,538.644775 889.711426,539.375366 888.184448,540.348755 
z"/>
<path fill="#131313" opacity="1.000000" stroke="none" 
	d="
M944.999329,540.536987 
	C945.958069,547.865662 943.370789,552.916687 936.635437,555.850769 
	C939.884583,561.211792 942.959839,566.285828 946.055481,571.393555 
	C939.054871,573.472900 937.898376,573.054382 934.456482,567.365662 
	C933.424561,565.660095 932.019531,564.101074 931.354126,562.268433 
	C929.617737,557.486572 926.404297,556.044434 921.232178,557.551514 
	C921.232178,562.037781 921.232178,566.786072 921.232178,571.900146 
	C918.248413,571.900146 915.708557,571.900146 913.007935,571.900146 
	C912.948669,570.673523 912.845886,569.523926 912.844788,568.374268 
	C912.833130,555.911987 912.837524,543.449707 912.837524,530.962158 
	C920.319946,530.962158 927.592834,530.491455 934.768982,531.122131 
	C939.833008,531.567139 943.536560,534.871277 944.999329,540.536987 
M926.365112,550.398865 
	C927.851746,550.341492 929.360046,550.424622 930.820740,550.199097 
	C934.495483,549.631836 936.880371,547.768738 936.949219,543.706665 
	C937.015015,539.821472 934.747131,537.817139 931.295471,537.422302 
	C927.953552,537.040039 924.533630,537.339478 921.203613,537.339478 
	C921.203613,542.032166 921.203613,546.104309 921.203613,550.407837 
	C922.792969,550.407837 924.100769,550.407837 926.365112,550.398865 
z"/>
<path fill="#1C1C1C" opacity="1.000000" stroke="none" 
	d="
M1600.513428,530.418884 
	C1600.871704,541.098816 1601.635254,551.746887 1600.483276,562.183472 
	C1599.647949,569.749329 1591.100342,573.724548 1581.461670,572.882812 
	C1572.840210,572.129883 1567.318359,566.863220 1566.281982,558.355408 
	C1566.141724,557.204102 1566.153564,556.030273 1566.151978,554.866760 
	C1566.141724,546.900146 1566.146484,538.933594 1566.146484,530.621338 
	C1568.847778,530.621338 1571.242676,530.621338 1574.192993,530.621338 
	C1574.192993,538.799377 1574.032471,546.920288 1574.240845,555.031677 
	C1574.427368,562.295044 1578.220093,565.823792 1584.750244,565.356262 
	C1590.513794,564.943665 1593.335327,561.781494 1593.404785,555.332031 
	C1593.492554,547.198608 1593.426025,539.063477 1593.426025,530.296448 
	C1595.932983,530.296448 1598.015747,530.296448 1600.513428,530.418884 
z"/>
<path fill="#131313" opacity="1.000000" stroke="none" 
	d="
M1078.860352,572.128662 
	C1077.115112,572.048401 1075.828613,571.969910 1074.337646,571.878906 
	C1074.337646,558.043884 1074.337646,544.470825 1074.337646,530.623474 
	C1083.834229,530.623474 1093.094238,530.623474 1102.657715,530.623474 
	C1102.657715,532.833740 1102.657715,534.904053 1102.657715,537.309875 
	C1095.995361,537.309875 1089.365723,537.309875 1082.452637,537.309875 
	C1082.452637,540.713257 1082.452637,543.788391 1082.452637,547.364502 
	C1088.476196,547.364502 1094.384521,547.364502 1100.594604,547.364502 
	C1100.594604,549.763184 1100.594604,551.673645 1100.594604,554.190430 
	C1094.682251,554.190430 1088.645386,554.190430 1082.389648,554.190430 
	C1082.389648,557.906982 1082.389648,561.028625 1082.389648,564.797729 
	C1089.190918,564.797729 1096.066895,564.797729 1103.205322,564.797729 
	C1103.205322,567.532593 1103.205322,569.631348 1103.205322,572.130493 
	C1095.217896,572.130493 1087.268555,572.130493 1078.860352,572.128662 
z"/>
<path fill="#151515" opacity="1.000000" stroke="none" 
	d="
M1349.084961,543.107483 
	C1351.238770,540.755432 1353.329102,538.801453 1355.020386,536.548035 
	C1358.685791,531.664062 1363.015503,528.627869 1370.318604,530.887756 
	C1364.865112,536.674500 1359.508423,542.358521 1353.996582,548.207336 
	C1359.951538,556.121887 1365.710815,563.776306 1371.685547,571.717041 
	C1365.854248,572.882690 1361.320312,572.869446 1358.153809,567.100403 
	C1355.617676,562.479919 1352.011353,558.446899 1348.816772,554.066528 
	C1340.726318,558.212097 1345.595581,566.031433 1343.453491,571.960449 
	C1341.063477,571.960449 1338.623901,571.960449 1336.118652,571.960449 
	C1336.118652,558.126831 1336.118652,544.519348 1336.118652,530.595947 
	C1338.614868,530.595947 1340.883057,530.595947 1343.716064,530.595947 
	C1343.716064,536.122131 1343.716064,541.820435 1343.716064,548.778076 
	C1346.009888,546.357178 1347.425171,544.863464 1349.084961,543.107483 
z"/>
<path fill="#121212" opacity="1.000000" stroke="none" 
	d="
M1179.712891,554.507141 
	C1179.711914,546.418518 1179.711914,538.782837 1179.711914,530.807373 
	C1182.283447,530.807373 1184.513672,530.807373 1187.457886,530.807373 
	C1187.457886,537.630310 1187.390991,544.551819 1187.491821,551.470825 
	C1187.530396,554.115906 1187.615723,556.842834 1188.274048,559.378174 
	C1189.458130,563.938538 1193.130737,565.523865 1197.429565,565.580505 
	C1201.587769,565.635376 1205.207764,564.117371 1206.068115,559.635498 
	C1206.778687,555.932861 1206.791138,552.072937 1206.870239,548.277710 
	C1206.990723,542.489380 1206.901855,536.696777 1206.901855,530.606689 
	C1209.717529,530.606689 1212.112915,530.606689 1214.873779,530.606689 
	C1214.873779,540.347717 1215.380005,549.976440 1214.722290,559.524963 
	C1214.140015,567.976440 1207.185547,572.919495 1197.727173,572.920166 
	C1188.001709,572.920837 1181.532715,567.991150 1180.104980,559.429932 
	C1179.859619,557.959167 1179.838623,556.450989 1179.712891,554.507141 
z"/>
<path fill="#151515" opacity="1.000000" stroke="none" 
	d="
M1314.488281,537.543579 
	C1313.458740,538.828613 1312.653442,539.864197 1311.848022,540.899780 
	C1311.749878,540.340820 1311.651611,539.781860 1311.553345,539.222839 
	C1307.149170,538.455933 1302.759521,537.313171 1298.332031,537.140503 
	C1296.918213,537.085449 1294.401123,539.484436 1294.224609,540.977600 
	C1294.056030,542.402344 1295.949585,544.843994 1297.515747,545.545166 
	C1301.122192,547.159668 1305.133545,547.838745 1308.883423,549.171143 
	C1314.597046,551.201355 1316.995361,554.468018 1317.062012,559.769409 
	C1317.131592,565.312012 1314.595215,569.064514 1309.254272,571.320679 
	C1300.622192,574.967102 1290.518921,572.914185 1283.720459,565.847107 
	C1285.254517,564.227661 1286.808105,562.587646 1287.398804,561.963989 
	C1293.138184,563.331909 1297.942017,565.048462 1302.835571,565.361145 
	C1304.785889,565.485779 1306.934326,562.506775 1308.992554,560.940674 
	C1307.299194,559.165161 1305.904785,556.803589 1303.842285,555.751892 
	C1300.782104,554.191528 1297.207275,553.675171 1293.925781,552.506165 
	C1287.921265,550.367310 1285.236450,547.097778 1285.271484,542.294067 
	C1285.307983,537.287476 1288.302246,532.950928 1293.661865,531.049011 
	C1300.645752,528.570801 1307.444092,529.293396 1313.570312,533.611633 
	C1314.402588,534.198242 1314.353394,536.035767 1314.488281,537.543579 
z"/>
<path fill="#141414" opacity="1.000000" stroke="none" 
	d="
M992.185669,569.798950 
	C991.279236,567.416687 990.515259,565.397583 989.650146,563.111267 
	C986.541504,563.111267 983.366516,563.410461 980.269897,563.045410 
	C974.796021,562.400146 971.345642,563.841003 969.852722,569.759644 
	C968.635010,574.587158 964.292419,571.142578 960.528015,572.565063 
	C963.229187,565.715820 965.584412,559.776978 967.913757,553.828003 
	C970.335510,547.643311 972.768799,541.462708 975.124634,535.252808 
	C976.296692,532.163269 977.596619,530.072571 981.717896,530.111145 
	C985.698425,530.148438 986.204956,532.494141 987.236328,535.123718 
	C991.964172,547.177856 996.766113,559.203003 1001.033264,572.756042 
	C998.131531,571.891418 995.229797,571.026794 992.185669,569.798950 
M986.042114,552.596436 
	C984.591003,548.452393 983.139832,544.308411 981.256714,538.930786 
	C978.994934,545.283264 977.145691,550.476929 975.197754,555.947876 
	C979.488159,555.947876 983.102783,555.947876 986.999695,555.947876 
	C986.712830,554.925659 986.497070,554.156921 986.042114,552.596436 
z"/>
<path fill="#171717" opacity="1.000000" stroke="none" 
	d="
M1267.037598,548.791870 
	C1264.594360,555.350586 1259.383423,557.218079 1253.506226,557.802856 
	C1250.554199,558.096619 1247.548706,557.854187 1243.988159,557.854187 
	C1243.988159,562.683533 1243.988159,567.216858 1243.988159,571.994995 
	C1240.975586,571.994995 1238.542236,571.994995 1235.820923,571.994995 
	C1235.820923,558.196106 1235.820923,544.510559 1235.820923,530.506287 
	C1242.316772,530.506287 1248.481323,530.043030 1254.549438,530.610046 
	C1264.817505,531.569458 1269.229370,538.170288 1267.037598,548.791870 
M1243.708618,544.528564 
	C1243.708618,546.606201 1243.708618,548.683838 1243.708618,551.197144 
	C1249.326294,550.564087 1255.074707,552.883789 1258.508911,547.640198 
	C1259.647827,545.901123 1259.557739,542.063538 1258.364746,540.333557 
	C1254.792236,535.153931 1249.144409,537.763733 1243.713501,537.210999 
	C1243.713501,539.667786 1243.713501,541.613159 1243.708618,544.528564 
z"/>
<path fill="#171717" opacity="1.000000" stroke="none" 
	d="
M776.719421,557.387817 
	C776.719421,548.594116 776.719421,539.800354 776.719421,530.661438 
	C779.653687,530.661438 782.033264,530.661438 784.674500,530.661438 
	C784.674500,540.793518 785.224670,550.913269 784.488831,560.938599 
	C783.962646,568.107788 777.218628,572.585205 768.906921,572.917542 
	C759.132629,573.308289 751.943848,569.561707 751.045227,561.454834 
	C749.925171,551.350708 750.776367,541.028076 750.776367,530.510376 
	C752.709473,530.510376 754.990173,530.510376 757.875305,530.510376 
	C757.875305,535.877747 757.875305,541.476440 757.870605,547.846069 
	C757.940918,549.887207 758.015930,551.157410 758.091003,552.427551 
	C758.447205,555.507507 758.803467,558.587463 759.663208,562.181885 
	C763.451294,563.488342 766.735840,564.280334 770.391113,565.089111 
	C774.590759,563.955872 776.580994,561.386597 776.719421,557.387817 
z"/>
<path fill="#151515" opacity="1.000000" stroke="none" 
	d="
M1622.641724,571.874634 
	C1622.276978,558.059387 1622.276978,544.462952 1622.276978,530.420654 
	C1629.034912,530.420654 1635.524902,529.969238 1641.924927,530.535950 
	C1649.773682,531.230896 1654.397705,537.036560 1654.293335,544.851685 
	C1654.199219,551.895691 1649.400513,556.962097 1641.608398,557.763123 
	C1638.020142,558.132019 1634.362305,557.825989 1630.302246,557.825989 
	C1630.302246,562.917175 1630.302246,567.350220 1630.302246,572.093567 
	C1627.577881,572.093567 1625.292236,572.093567 1622.641724,571.874634 
M1637.294189,537.126099 
	C1635.068604,537.126099 1632.843018,537.126099 1630.576538,537.126099 
	C1630.576538,542.111511 1630.576538,546.339172 1630.576538,551.087524 
	C1633.124634,551.087524 1635.393066,551.130737 1637.659424,551.078979 
	C1643.108521,550.954407 1646.156982,548.543945 1646.317627,544.293640 
	C1646.480835,539.974976 1643.869507,537.675964 1637.294189,537.126099 
z"/>
<path fill="#131313" opacity="1.000000" stroke="none" 
	d="
M805.939697,568.618225 
	C805.937256,555.857117 805.937256,543.557861 805.937256,530.993530 
	C813.528564,530.993530 820.972961,530.332397 828.236572,531.194580 
	C834.484558,531.936157 838.092163,537.694763 838.140137,544.321716 
	C838.186096,550.667969 834.668213,555.431641 828.419739,557.072144 
	C826.197998,557.655396 823.832581,557.772583 821.521240,557.910461 
	C819.236938,558.046692 816.938171,557.940247 814.214844,557.940247 
	C814.214844,562.794678 814.214844,567.221802 814.214844,572.412109 
	C811.218018,570.630005 806.701172,575.601746 805.939697,568.618225 
M814.068970,543.559082 
	C814.068970,545.977234 814.068970,548.395386 814.068970,551.239868 
	C819.805603,550.561218 825.778564,553.114990 829.169617,547.414368 
	C830.230469,545.630981 829.939514,541.774048 828.656128,540.105652 
	C824.932983,535.265503 819.413879,537.469299 814.069092,537.418823 
	C814.069092,539.383362 814.069092,541.002869 814.068970,543.559082 
z"/>
<path fill="#100F0F" opacity="1.000000" stroke="none" 
	d="
M678.999390,547.682007 
	C686.133972,547.683472 692.768616,547.683472 699.629639,547.683472 
	C699.629639,550.187988 699.629639,552.289001 699.629639,554.748901 
	C669.375427,554.748901 639.170837,554.748901 608.636047,554.748901 
	C608.636047,552.636169 608.636047,550.412048 608.636047,547.680542 
	C631.998352,547.680542 655.248901,547.680542 678.999390,547.682007 
z"/>
<path fill="#0D0D0D" opacity="1.000000" stroke="none" 
	d="
M1884.125977,555.137756 
	C1882.807129,552.877991 1881.973511,550.619629 1880.921631,547.769897 
	C1912.259888,547.769897 1942.326294,547.769897 1972.632568,547.769897 
	C1972.632568,550.089722 1972.632568,552.200317 1972.632568,555.139099 
	C1943.371704,555.139099 1913.991455,555.139099 1884.125977,555.137756 
z"/>
<path fill="#181717" opacity="1.000000" stroke="none" 
	d="
M1755.448975,572.113831 
	C1753.213379,572.164001 1751.401611,572.164001 1749.199585,572.164001 
	C1749.199585,558.233215 1749.199585,544.558472 1749.199585,530.575562 
	C1758.363892,530.575562 1767.419800,530.575562 1776.712158,530.575562 
	C1776.712158,532.679871 1776.712158,534.615417 1776.712158,537.091919 
	C1770.320190,537.091919 1763.936279,537.091919 1757.311768,537.091919 
	C1757.311768,540.888916 1757.311768,544.151245 1757.311768,547.843506 
	C1762.892090,547.843506 1768.459961,547.843506 1774.417358,547.843506 
	C1774.417358,550.287659 1774.417358,552.315125 1774.417358,554.856079 
	C1768.842773,554.856079 1763.272217,554.856079 1757.027710,554.856079 
	C1757.027710,559.434326 1757.128540,563.532532 1756.974854,567.621216 
	C1756.918701,569.113770 1756.257812,570.583496 1755.448975,572.113831 
z"/>
<path fill="#111111" opacity="1.000000" stroke="none" 
	d="
M1848.782715,338.528931 
	C1848.256226,331.821594 1850.855469,327.112732 1856.499390,324.372894 
	C1861.936523,321.733490 1867.212158,322.555023 1871.842651,326.388519 
	C1876.443359,330.197388 1877.352295,335.254608 1876.000244,340.823273 
	C1874.600708,346.587372 1869.015381,350.637299 1862.616333,350.670959 
	C1855.425903,350.708801 1850.688354,346.672882 1848.782715,338.528931 
z"/>
<path fill="#181717" opacity="1.000000" stroke="none" 
	d="
M1806.212646,568.545593 
	C1806.212646,557.992981 1806.212646,547.893921 1806.212646,537.532776 
	C1801.905151,537.532776 1798.127441,537.532776 1793.968262,537.532776 
	C1793.968262,535.217712 1793.968262,533.162170 1793.968262,530.686401 
	C1804.684570,530.686401 1815.522583,530.686401 1826.617798,530.686401 
	C1826.617798,532.662537 1826.617798,534.592285 1826.617798,537.072754 
	C1822.816162,537.072754 1818.937012,537.072754 1814.502319,537.072754 
	C1814.502319,548.940002 1814.502319,560.296692 1814.502319,572.506042 
	C1811.377930,570.735413 1806.876099,575.473572 1806.212646,568.545593 
z"/>
<path fill="#131313" opacity="1.000000" stroke="none" 
	d="
M1686.983398,572.189270 
	C1682.042847,572.190613 1677.593628,572.190613 1672.904297,572.190613 
	C1672.904297,558.208557 1672.904297,544.640076 1672.904297,530.699097 
	C1675.401855,530.699097 1677.770508,530.699097 1680.662354,530.699097 
	C1680.662354,541.906067 1680.662354,553.129272 1680.662354,564.865295 
	C1687.362061,564.865295 1693.582642,564.865295 1700.004150,564.865295 
	C1700.004150,567.480713 1700.004150,569.574280 1700.004150,572.187927 
	C1695.712036,572.187927 1691.593262,572.187927 1686.983398,572.189270 
z"/>
<path fill="#161616" opacity="1.000000" stroke="none" 
	d="
M1423.369629,572.258423 
	C1421.457275,572.189514 1420.002808,572.121643 1418.447266,572.049011 
	C1418.447266,558.106079 1418.447266,544.515625 1418.447266,530.571960 
	C1421.026733,530.571960 1423.425903,530.571960 1426.305664,530.571960 
	C1426.305664,541.744080 1426.305664,552.983582 1426.305664,564.701294 
	C1432.978027,564.701294 1439.204224,564.701294 1445.779785,564.701294 
	C1445.779785,567.387268 1445.779785,569.596558 1445.779785,572.259460 
	C1438.412354,572.259460 1431.119995,572.259460 1423.369629,572.258423 
z"/>
<path fill="#141414" opacity="1.000000" stroke="none" 
	d="
M1472.263672,531.836060 
	C1472.302368,543.041443 1472.302368,553.814575 1472.302368,564.994507 
	C1478.976440,564.994507 1485.070679,564.994507 1491.463623,564.994507 
	C1491.463623,567.479553 1491.463623,569.554932 1491.463623,571.948059 
	C1482.474731,571.948059 1473.555664,571.948059 1464.357178,571.948059 
	C1464.357178,558.299988 1464.357178,544.721191 1464.357178,530.120117 
	C1467.118408,530.570618 1469.671631,530.987183 1472.263672,531.836060 
z"/>
<path fill="#151515" opacity="1.000000" stroke="none" 
	d="
M1723.005737,572.247070 
	C1720.257812,572.496216 1718.966797,572.026306 1719.003784,569.098389 
	C1719.163818,556.450012 1719.072266,543.798462 1719.072266,530.723877 
	C1721.868042,530.723877 1724.399536,530.723877 1727.176514,530.723877 
	C1727.176514,544.356506 1727.176514,557.960876 1727.176514,571.928528 
	C1725.953003,572.032471 1724.686035,572.140198 1723.005737,572.247070 
z"/>
<path fill="#161616" opacity="1.000000" stroke="none" 
	d="
M1396.699219,571.332397 
	C1394.091919,571.901917 1391.658936,572.068298 1388.907227,572.256531 
	C1388.907227,558.235535 1388.907227,544.678711 1388.907227,530.763733 
	C1391.403076,530.763733 1393.780273,530.763733 1396.873413,530.763733 
	C1396.873413,544.162292 1396.873413,557.545776 1396.699219,571.332397 
z"/>
<path fill="#F1F1F1" opacity="1.000000" stroke="none" 
	d="
M776.328613,557.129089 
	C776.580994,561.386597 774.590759,563.955872 770.383057,564.748047 
	C769.999634,563.935730 769.994934,563.481323 769.990234,563.026855 
	C769.900208,558.554504 769.718018,554.081543 769.743835,549.609863 
	C769.774902,544.225342 769.867432,538.833984 770.233643,533.466064 
	C770.291016,532.624146 771.938538,531.890808 772.850830,531.107300 
	C773.563110,532.164368 774.852905,533.200806 774.891418,534.281799 
	C775.097534,540.068970 774.920532,545.868652 775.036804,551.660828 
	C775.071777,553.402649 775.623047,555.134155 776.328613,557.129089 
z"/>
<path fill="#181717" opacity="1.000000" stroke="none" 
	d="
M1840.044067,569.353149 
	C1839.520874,564.845459 1841.651245,562.596497 1845.607300,562.671143 
	C1848.681763,562.729004 1850.607056,564.977478 1850.029175,568.039612 
	C1849.719971,569.679199 1847.875977,572.303955 1846.811157,572.262451 
	C1844.558960,572.174927 1842.363770,570.628662 1840.044067,569.353149 
z"/>
<path fill="#1C1C1C" opacity="1.000000" stroke="none" 
	d="
M1122.341553,569.442932 
	C1122.817139,567.331543 1123.070679,564.414185 1124.158325,564.060364 
	C1126.300171,563.363464 1129.322510,563.392334 1131.158936,564.492493 
	C1132.228882,565.133545 1132.630615,569.463379 1131.692993,570.303772 
	C1130.128540,571.706177 1127.267212,571.868713 1124.911865,572.059875 
	C1124.172852,572.119873 1123.305176,570.595154 1122.341553,569.442932 
z"/>
<path fill="#1C1C1C" opacity="1.000000" stroke="none" 
	d="
M1517.713867,571.838623 
	C1515.055298,571.634399 1512.399536,571.697693 1510.481934,570.539001 
	C1509.600342,570.006226 1509.413818,566.509521 1510.266968,565.380005 
	C1511.322876,563.981750 1513.834473,562.888123 1515.630737,563.003967 
	C1519.764648,563.270691 1520.707275,567.149292 1517.713867,571.838623 
z"/>
<path fill="#ECECEC" opacity="1.000000" stroke="none" 
	d="
M769.608154,563.012146 
	C769.994934,563.481323 769.999634,563.935730 770.012390,564.731262 
	C766.735840,564.280334 763.451294,563.488342 760.008301,562.381958 
	C762.975220,562.377563 766.100586,562.687500 769.608154,563.012146 
z"/>
<path fill="#F1F1F1" opacity="1.000000" stroke="none" 
	d="
M758.363831,552.801819 
	C758.015930,551.157410 757.940918,549.887207 757.958557,548.306763 
	C759.315857,548.926453 760.580383,549.856506 761.844910,550.786560 
	C760.775513,551.583069 759.706055,552.379578 758.363831,552.801819 
z"/>
<path fill="#FCFBFB" opacity="1.000000" stroke="none" 
	d="
M909.322266,417.062012 
	C885.657715,413.666718 871.338074,398.219482 870.165894,375.280426 
	C869.094910,354.322296 882.880432,334.881317 902.222656,330.130249 
	C920.007141,325.761749 935.520630,329.958038 947.309570,343.992920 
	C959.778809,358.837585 961.294556,375.983368 952.811707,393.065643 
	C944.728516,409.342987 930.701050,417.398621 912.276611,417.184875 
	C911.444031,417.175201 910.611877,417.127258 909.322266,417.062012 
z"/>
<path fill="#F6F5F6" opacity="1.000000" stroke="none" 
	d="
M1026.670654,560.888062 
	C1026.672119,552.807678 1026.672119,545.213867 1026.672119,537.300903 
	C1030.036865,537.300903 1032.851562,537.050293 1035.606445,537.349731 
	C1042.777954,538.129211 1046.467041,542.896423 1046.431885,550.961975 
	C1046.396484,559.105896 1042.344360,564.197205 1035.225220,564.910889 
	C1033.412842,565.092529 1031.556274,564.844482 1029.746948,565.041382 
	C1026.754150,565.366943 1026.479126,563.613831 1026.670654,560.888062 
z"/>
<path fill="#F1F1F1" opacity="1.000000" stroke="none" 
	d="
M925.886841,550.403320 
	C924.100769,550.407837 922.792969,550.407837 921.203613,550.407837 
	C921.203613,546.104309 921.203613,542.032166 921.203613,537.339478 
	C924.533630,537.339478 927.953552,537.040039 931.295471,537.422302 
	C934.747131,537.817139 937.015015,539.821472 936.949219,543.706665 
	C936.880371,547.768738 934.495483,549.631836 930.820740,550.199097 
	C929.360046,550.424622 927.851746,550.341492 925.886841,550.403320 
z"/>
<path fill="#EFEFEF" opacity="1.000000" stroke="none" 
	d="
M986.161743,552.992310 
	C986.497070,554.156921 986.712830,554.925659 986.999695,555.947876 
	C983.102783,555.947876 979.488159,555.947876 975.197754,555.947876 
	C977.145691,550.476929 978.994934,545.283264 981.256714,538.930786 
	C983.139832,544.308411 984.591003,548.452393 986.161743,552.992310 
z"/>
<path fill="#F1F1F1" opacity="1.000000" stroke="none" 
	d="
M1243.711060,544.043579 
	C1243.713501,541.613159 1243.713501,539.667786 1243.713501,537.210999 
	C1249.144409,537.763733 1254.792236,535.153931 1258.364746,540.333557 
	C1259.557739,542.063538 1259.647827,545.901123 1258.508911,547.640198 
	C1255.074707,552.883789 1249.326294,550.564087 1243.708618,551.197144 
	C1243.708618,548.683838 1243.708618,546.606201 1243.711060,544.043579 
z"/>
<path fill="#ECECEC" opacity="1.000000" stroke="none" 
	d="
M1637.735107,537.125977 
	C1643.869507,537.675964 1646.480835,539.974976 1646.317627,544.293640 
	C1646.156982,548.543945 1643.108521,550.954407 1637.659424,551.078979 
	C1635.393066,551.130737 1633.124634,551.087524 1630.576538,551.087524 
	C1630.576538,546.339172 1630.576538,542.111511 1630.576538,537.126099 
	C1632.843018,537.126099 1635.068604,537.126099 1637.735107,537.125977 
z"/>
<path fill="#EFEFEF" opacity="1.000000" stroke="none" 
	d="
M814.069031,543.090759 
	C814.069092,541.002869 814.069092,539.383362 814.069092,537.418823 
	C819.413879,537.469299 824.932983,535.265503 828.656128,540.105652 
	C829.939514,541.774048 830.230469,545.630981 829.169617,547.414368 
	C825.778564,553.114990 819.805603,550.561218 814.068970,551.239868 
	C814.068970,548.395386 814.068970,545.977234 814.069031,543.090759 
z"/>
</svg>